<svg width="36" height="36" viewBox="0 0 36 36" fill="none" xmlns="http://www.w3.org/2000/svg">
<path id="Vector" d="M18 0C8.05915 0 0 8.05915 0 18C0 27.9408 8.05915 36 18 36C27.9408 36 36 27.9408 36 18C36 8.05915 27.9408 0 18 0ZM13.1538 26.3077H9.69231V13.8462H13.1538V26.3077ZM11.4127 12.4615H11.3933C10.3604 12.4615 9.69231 11.6917 9.69231 10.7301C9.69231 9.74769 10.3812 9 11.4328 9C12.4858 9 13.1345 9.74769 13.1538 10.7301C13.1538 11.691 12.4858 12.4615 11.4127 12.4615ZM26.3077 26.3077H22.8462V20.0769C22.8462 18 21.8451 17.3077 20.7692 17.3077C19.7688 17.3077 18.6923 18 18.6923 20.0769V26.3077H15.2308V13.8462H18.6923V15.9231C18.9298 15.2439 20.0658 13.8462 22.1538 13.8462C24.9231 13.8462 26.3077 15.9231 26.3077 19.3846V26.3077Z" fill="white"/>
</svg>
